/vscmnt/brussel_pixiu_data/_data_brussel/112/vsc11236/PredSimResults/SUBJ10opt3D/weighted-expIG/worker_02.mot
version=1
nRows=5
nColumns=50
inDegrees=yes
endheader
                time	         pelvis_tilt	         pelvis_list	     pelvis_rotation	           pelvis_tx	           pelvis_ty	           pelvis_tz	       hip_flexion_r	     hip_adduction_r	      hip_rotation_r	        knee_angle_r	       ankle_angle_r	         mtp_angle_r	       hip_flexion_l	     hip_adduction_l	      hip_rotation_l	        knee_angle_l	       ankle_angle_l	         mtp_angle_l	    lumbar_extension	      lumbar_bending	     lumbar_rotation	 ercspn_r/activation	 intobl_r/activation	 extobl_r/activation	    abd_r/activation	    add_r/activation	hamstrings_r/activation	bifemsh_r/activation	glut_max_r/activation	iliopsoas_r/activation	rect_fem_r/activation	  vasti_r/activation	gastroc_r/activation	 soleus_r/activation	tib_ant_r/activation	 ercspn_l/activation	 intobl_l/activation	 extobl_l/activation	    abd_l/activation	    add_l/activation	hamstrings_l/activation	bifemsh_l/activation	glut_max_l/activation	iliopsoas_l/activation	rect_fem_l/activation	  vasti_l/activation	gastroc_l/activation	 soleus_l/activation	tib_ant_l/activation	
          1.14905316	         -4.14505063	         -0.90493788	          6.69843728	          1.29843007	          0.82318039	         -0.01277249	         30.50701530	         -1.39661242	         -5.65031904	         -7.70042956	          2.98006200	          0.26347116	        -15.52148994	         -0.61454613	         -0.50553896	         -6.59730429	          8.72495414	         26.59818060	         -6.28511251	         -0.45671275	         -6.92676188	          0.10809920	          0.14749803	          0.00999999	          0.00999999	          0.20792009	          0.11069950	          0.19909359	          0.05559058	          0.09618662	          0.00999999	          0.00999999	          0.01705981	          0.01329779	          0.28900837	          0.09528117	          0.00999999	          0.00999999	          0.05746378	          0.00999999	          0.01150245	          0.21232972	          0.01492638	          0.42258488	          0.00999999	          0.00999999	          0.31150745	          0.25857245	          0.02310889	
          1.16054369	         -4.18144165	         -0.88843232	          6.80227298	          1.31395953	          0.82182042	         -0.01243552	         30.36679521	         -1.26696423	         -5.27856830	         -9.29106620	          2.63443429	          0.24948582	        -15.54201059	         -0.75281703	         -0.82416902	         -8.42716848	          8.07910543	         28.28980108	         -6.04608077	          0.02966139	         -7.25123990	          0.09072463	          0.12379096	          0.00999999	          0.00999999	          0.17450151	          0.09607632	          0.16709367	          0.10005796	          0.08072673	          0.00999999	          0.00999999	          0.01431782	          0.01116046	          0.35683735	          0.11129791	          0.00999999	          0.00999999	          0.04822774	          0.01713136	          0.02084198	          0.17820238	          0.01252730	          0.35466365	          0.00999999	          0.00999999	          0.27339013	          0.24743523	          0.01939464	
          1.17203422	         -4.20888102	         -0.88930817	          6.86789536	          1.32972809	          0.82075545	         -0.01197274	         30.06615536	         -1.12660450	         -4.96765537	        -10.60749062	          2.17434716	          0.24065785	        -15.41309981	         -0.92299426	         -1.16783857	        -10.54100789	          7.26150939	         29.94633554	         -5.79011556	          0.53094092	         -7.54494273	          0.10336958	          0.10389428	          0.00999999	          0.05458835	          0.16990284	          0.08368209	          0.14023704	          0.11337209	          0.06775168	          0.00999999	          0.00999999	          0.01201655	          0.00999999	          0.41396038	          0.12355169	          0.00999999	          0.00999999	          0.04047619	          0.01437787	          0.01749210	          0.14956027	          0.01051381	          0.29765926	          0.00999999	          0.00999999	          0.22944868	          0.23056520	          0.01627738	
          1.18352475	         -4.22812947	         -0.88754820	          6.89509976	          1.34553352	          0.82008623	         -0.01139074	         29.71114824	         -0.98667664	         -4.76462272	        -11.83994927	          1.71033195	          0.22760705	        -15.08631235	         -1.10409486	         -1.53891787	        -12.99098718	          6.25834577	         31.47124558	         -5.54041043	          1.02440022	         -7.80269179	          0.10642110	          0.08719556	          0.00999999	          0.09399458	          0.20833841	          0.07179526	          0.11769701	          0.11820614	          0.05686209	          0.00999999	          0.00999999	          0.01008515	          0.00999999	          0.44615486	          0.14997616	          0.00999999	          0.00999999	          0.03397053	          0.01206694	          0.01622282	          0.12552174	          0.00999999	          0.24981708	          0.00999999	          0.00999999	          0.19256985	          0.21150903	          0.01366115	
          1.19501528	         -4.23929619	         -0.88533241	          6.88734656	          1.36123253	          0.81987904	         -0.01070393	         29.36810084	         -0.84760701	         -4.65200560	        -13.11401712	          1.37852359	          0.21463588	        -14.52797734	         -1.30061144	         -1.94199903	        -15.80819610	          5.08914815	         32.69941992	         -5.30835251	          1.51124406	         -8.02313686	          0.10510813	          0.07318079	          0.00999999	          0.12305098	          0.23257400	          0.06759376	          0.09877981	          0.11699267	          0.04772276	          0.00999999	          0.04132481	          0.00999999	          0.00999999	          0.46187210	          0.17306446	          0.00999999	          0.00999999	          0.02851052	          0.06843272	          0.02968354	          0.10534688	          0.00999999	          0.20966447	          0.00999999	          0.00999999	          0.16161848	          0.18174097	          0.01146542	
